#Comment line ignore any data following # character 
#Hierarchical Translation and Rotation (.htr) file 
[Header]	
#Header keywords are followed by a single value 
FileType HTR		#Single word string
DataType HTRS		#Translation followed by rotation and scale data
FileVersion 1		#integer
NumSegments 64		#integer
NumFrames 3		#integer
DataFrameRate 30		#integer, data frame rate in this file
EulerRotationOrder ZYX
CalibrationUnits mm
RotationUnits Degrees
GlobalAxisofGravity Y
BoneLengthAxis Y
ScaleFactor 1.00
[SegmentNames&Hierarchy]
#CHILD	PARENT
Pinger_Root GLOBAL
Pelvis Pinger_Root
L_Hip Pelvis
R_Hip Pelvis
Rear_Leg01 Pelvis
Spine1 Pelvis
L_Leg01 L_Hip
L_Leg02 L_Leg01
L_Leg03 L_Leg02
L_Foot L_Leg03
L_Toe1_01 L_Foot
L_Toe2_01 L_Foot
L_Toe3_01 L_Foot
planeAlignerLeft L_Foot
L_Toe1_02 L_Toe1_01
L_Toe1_03 L_Toe1_02
L_Toe2_02 L_Toe2_01
L_Toe2_03 L_Toe2_02
L_Toe3_02 L_Toe3_01
L_Toe3_03 L_Toe3_02
planeLockWeightLeft planeAlignerLeft
R_Leg01 R_Hip
R_Leg02 R_Leg01
R_Leg03 R_Leg02
R_Foot R_Leg03
planeAlignerRight R_Foot
R_Toe1_01 R_Foot
R_Toe2_01 R_Foot
R_Toe3_01 R_Foot
planeLockWeightRight planeAlignerRight
R_Toe1_02 R_Toe1_01
R_Toe1_03 R_Toe1_02
R_Toe2_02 R_Toe2_01
R_Toe2_03 R_Toe2_02
R_Toe3_02 R_Toe3_01
R_Toe3_03 R_Toe3_02
Rear_Leg02 Rear_Leg01
Rear_Leg03 Rear_Leg02
Rear_Leg04 Rear_Leg03
Rear_Foot Rear_Leg04
planeAlignerCenter Rear_Foot
Rear_Toe1_01 Rear_Foot
Rear_Toe2_01 Rear_Foot
Rear_Toe3_01 Rear_Foot
planeLockWeightCenter planeAlignerCenter
Rear_Toe1_02 Rear_Toe1_01
Rear_Toe1_03 Rear_Toe1_02
Rear_Toe2_02 Rear_Toe2_01
Rear_Toe2_03 Rear_Toe2_02
Rear_Toe3_02 Rear_Toe3_01
Rear_Toe3_03 Rear_Toe3_02
Back_Bone Spine1
Head Spine1
Motor_Bone Back_Bone
Ping_Mechanism Back_Bone
BN_LookIK Head
bottomMouth Head
L_Mouth01 Head
L_mouthFront Head
mouthGun Head
R_Mouth01 Head
R_mouthFront Head
TopMouth Head
weapon_bone Head
[BasePosition]
#SegmentName Tx, Ty, Tz, Rx, Ry, Rz, BoneLength
Pinger_Root 0.000000 0.000000 0.000000 -90.000000 0.000000 0.000000 10.000000 
Pelvis 0.000000 0.000000 0.000000 0.000000 0.000000 0.000000 10.000000 
L_Hip 0.000000 0.000000 0.000000 0.000000 0.000000 0.000000 10.000000 
R_Hip 0.000000 0.000000 0.000000 0.000000 0.000000 0.000000 10.000000 
Rear_Leg01 0.000000 0.000000 0.000000 0.000000 0.000000 0.000000 10.000000 
Spine1 0.000000 0.000000 0.000000 0.000000 0.000000 0.000000 10.000000 
L_Leg01 0.000000 0.000000 0.000000 0.000000 0.000000 0.000000 10.000000 
L_Leg02 0.000000 0.000000 0.000000 0.000000 0.000000 0.000000 10.000000 
L_Leg03 0.000000 0.000000 0.000000 0.000000 0.000000 0.000000 10.000000 
L_Foot 0.000000 0.000000 0.000000 0.000000 0.000000 0.000000 10.000000 
L_Toe1_01 0.000000 0.000000 0.000000 0.000000 0.000000 0.000000 10.000000 
L_Toe2_01 0.000000 0.000000 0.000000 0.000000 0.000000 0.000000 10.000000 
L_Toe3_01 0.000000 0.000000 0.000000 0.000000 0.000000 0.000000 10.000000 
planeAlignerLeft 0.000000 0.000000 0.000000 0.000000 0.000000 0.000000 10.000000 
L_Toe1_02 0.000000 0.000000 0.000000 0.000000 0.000000 0.000000 10.000000 
L_Toe1_03 0.000000 0.000000 0.000000 0.000000 0.000000 0.000000 10.000000 
L_Toe2_02 0.000000 0.000000 0.000000 0.000000 0.000000 0.000000 10.000000 
L_Toe2_03 0.000000 0.000000 0.000000 0.000000 0.000000 0.000000 10.000000 
L_Toe3_02 0.000000 0.000000 0.000000 0.000000 0.000000 0.000000 10.000000 
L_Toe3_03 0.000000 0.000000 0.000000 0.000000 0.000000 0.000000 10.000000 
planeLockWeightLeft 0.000000 0.000000 0.000000 0.000000 0.000000 0.000000 10.000000 
R_Leg01 0.000000 0.000000 0.000000 0.000000 0.000000 0.000000 10.000000 
R_Leg02 0.000000 0.000000 0.000000 0.000000 0.000000 0.000000 10.000000 
R_Leg03 0.000000 0.000000 0.000000 0.000000 0.000000 0.000000 10.000000 
R_Foot 0.000000 0.000000 0.000000 0.000000 0.000000 0.000000 10.000000 
planeAlignerRight 0.000000 0.000000 0.000000 0.000000 0.000000 0.000000 10.000000 
R_Toe1_01 0.000000 0.000000 0.000000 0.000000 0.000000 0.000000 10.000000 
R_Toe2_01 0.000000 0.000000 0.000000 0.000000 0.000000 0.000000 10.000000 
R_Toe3_01 0.000000 0.000000 0.000000 0.000000 0.000000 0.000000 10.000000 
planeLockWeightRight 0.000000 0.000000 0.000000 0.000000 0.000000 0.000000 10.000000 
R_Toe1_02 0.000000 0.000000 0.000000 0.000000 0.000000 0.000000 10.000000 
R_Toe1_03 0.000000 0.000000 0.000000 0.000000 0.000000 0.000000 10.000000 
R_Toe2_02 0.000000 0.000000 0.000000 0.000000 0.000000 0.000000 10.000000 
R_Toe2_03 0.000000 0.000000 0.000000 0.000000 0.000000 0.000000 10.000000 
R_Toe3_02 0.000000 0.000000 0.000000 0.000000 0.000000 0.000000 10.000000 
R_Toe3_03 0.000000 0.000000 0.000000 0.000000 0.000000 0.000000 10.000000 
Rear_Leg02 0.000000 0.000000 0.000000 0.000000 0.000000 0.000000 10.000000 
Rear_Leg03 0.000000 0.000000 0.000000 0.000000 0.000000 0.000000 10.000000 
Rear_Leg04 0.000000 0.000000 0.000000 0.000000 0.000000 0.000000 10.000000 
Rear_Foot 0.000000 0.000000 0.000000 0.000000 0.000000 0.000000 10.000000 
planeAlignerCenter 0.000000 0.000000 0.000000 0.000000 0.000000 0.000000 10.000000 
Rear_Toe1_01 0.000000 0.000000 0.000000 0.000000 0.000000 0.000000 10.000000 
Rear_Toe2_01 0.000000 0.000000 0.000000 0.000000 0.000000 0.000000 10.000000 
Rear_Toe3_01 0.000000 0.000000 0.000000 0.000000 0.000000 0.000000 10.000000 
planeLockWeightCenter 0.000000 0.000000 0.000000 0.000000 0.000000 0.000000 10.000000 
Rear_Toe1_02 0.000000 0.000000 0.000000 0.000000 0.000000 0.000000 10.000000 
Rear_Toe1_03 0.000000 0.000000 0.000000 0.000000 0.000000 0.000000 10.000000 
Rear_Toe2_02 0.000000 0.000000 0.000000 0.000000 0.000000 0.000000 10.000000 
Rear_Toe2_03 0.000000 0.000000 0.000000 0.000000 0.000000 0.000000 10.000000 
Rear_Toe3_02 0.000000 0.000000 0.000000 0.000000 0.000000 0.000000 10.000000 
Rear_Toe3_03 0.000000 0.000000 0.000000 0.000000 0.000000 0.000000 10.000000 
Back_Bone 0.000000 0.000000 0.000000 0.000000 0.000000 0.000000 10.000000 
Head 0.000000 0.000000 0.000000 0.000000 0.000000 0.000000 10.000000 
Motor_Bone 0.000000 0.000000 0.000000 0.000000 0.000000 0.000000 10.000000 
Ping_Mechanism 0.000000 0.000000 0.000000 0.000000 0.000000 0.000000 10.000000 
BN_LookIK 0.000000 0.000000 0.000000 0.000000 0.000000 0.000000 10.000000 
bottomMouth 0.000000 0.000000 0.000000 0.000000 0.000000 0.000000 10.000000 
L_Mouth01 0.000000 0.000000 0.000000 0.000000 0.000000 0.000000 10.000000 
L_mouthFront 0.000000 0.000000 0.000000 0.000000 0.000000 0.000000 10.000000 
mouthGun 0.000000 0.000000 0.000000 0.000000 0.000000 0.000000 10.000000 
R_Mouth01 0.000000 0.000000 0.000000 0.000000 0.000000 0.000000 10.000000 
R_mouthFront 0.000000 0.000000 0.000000 0.000000 0.000000 0.000000 10.000000 
TopMouth 0.000000 0.000000 0.000000 0.000000 0.000000 0.000000 10.000000 
weapon_bone 0.000000 0.000000 0.000000 0.000000 0.000000 0.000000 10.000000 
#Beginning of Data. Separated by tabs
#Fr	Tx	Ty	Tz	Rx	Ry	Rz	SF
[Pinger_Root]
49 0.000000 0.000000 0.000000 -0.000075 -0.000000 -0.000020 0.000000
50 0.000000 0.000000 0.000000 -0.000075 -0.000000 -0.000020 0.000000
51 0.000000 0.000000 0.000000 -0.000075 -0.000000 -0.000020 0.000000
[Pelvis]
49 -177.878159 872.616943 4225.505859 -96.645508 -84.101662 89.048172 4318.333008
50 -120.938065 884.166077 4249.595215 -97.608315 -84.605515 90.004646 4342.284180
51 -64.405952 893.605713 4279.757324 -98.768501 -85.107666 91.158554 4372.528320
[L_Hip]
49 5.766392 125.831482 872.656799 160.158691 -45.484905 122.312202 881.701050
50 5.766392 125.831482 872.656799 160.158691 -45.484905 122.312202 881.701050
51 5.766392 125.831482 872.656799 160.158691 -45.484905 122.312202 881.701050
[R_Hip]
49 5.765438 125.836372 -872.654907 38.087841 49.812687 125.703735 881.699829
50 5.765438 125.836372 -872.654907 38.087841 49.812687 125.703735 881.699829
51 5.765438 125.836372 -872.654907 38.087841 49.812687 125.703735 881.699829
[Rear_Leg01]
49 -192.298416 -925.602966 -0.001907 170.561890 5.701579 -160.991486 945.367432
50 -192.298416 -925.602966 -0.001907 170.349350 4.830080 -160.406906 945.367432
51 -192.298416 -925.602966 -0.001907 170.128159 3.960787 -159.819794 945.367432
[Spine1]
49 290.604584 5.007505 0.000477 5.185141 -4.912885 18.132612 290.647736
50 290.604584 5.007505 0.000477 5.815485 -3.383882 18.485424 290.647736
51 290.604584 5.007505 0.000477 6.385319 -2.169394 18.772501 290.647736
[L_Leg01]
49 761.932007 -0.002384 -0.069261 17.124924 -20.009901 2.296294 761.932068
50 761.932007 -0.002384 -0.069261 18.456797 -19.228561 0.654272 761.932068
51 761.932007 -0.002384 -0.069261 19.780775 -18.364849 -1.295420 761.932068
[L_Leg02]
49 1441.140503 -0.000954 -0.000715 4.206575 -0.184993 -143.519470 1441.140503
50 1441.140503 -0.000954 -0.000715 4.009929 -0.187386 -141.771515 1441.140503
51 1441.140503 -0.000954 -0.000715 3.754222 -0.190045 -139.498505 1441.140503
[L_Leg03]
49 1686.963989 -0.000715 -0.000954 -0.035258 0.014783 119.709190 1686.963989
50 1686.963989 -0.000715 -0.000954 -0.034657 0.013663 119.541893 1686.963989
51 1686.963989 -0.000715 -0.000954 -0.034053 0.012545 119.374603 1686.963989
[L_Foot]
49 3041.570068 -30.715107 11.297464 4.868686 12.344905 58.939259 3041.746094
50 3041.570068 -30.715107 11.297464 4.112614 12.464527 58.412762 3041.746094
51 3041.570068 -30.715107 11.297464 3.355105 12.577349 57.884441 3041.746094
[L_Toe1_01]
49 -188.216690 -224.732346 -21.137953 93.765839 -9.131989 -172.838867 293.899567
50 -188.216690 -224.732346 -21.137953 93.756508 -8.749537 -172.649185 293.899567
51 -188.216690 -224.732346 -21.137953 93.748459 -8.367049 -172.459732 293.899567
[L_Toe2_01]
49 200.746536 -219.926590 148.838394 -89.493347 -29.265390 -51.825954 332.896027
50 200.746536 -219.926590 148.838394 -89.559166 -28.712152 -52.067024 332.896027
51 200.746536 -219.926590 148.838394 -89.627289 -28.159151 -52.307541 332.896027
[L_Toe3_01]
49 188.832520 -219.859131 -191.078659 -98.489777 11.851303 -64.453476 347.140900
50 188.832520 -219.859131 -191.078659 -98.725456 12.199070 -65.140625 347.140900
51 188.832520 -219.859131 -191.078659 -98.965698 12.544040 -65.830124 347.140900
[planeAlignerLeft]
49 0.812531 -811.448792 -0.314951 0.000000 -90.000000 -90.001900 811.449280
50 0.812531 -811.448792 -0.314951 0.000000 -90.000000 -90.001900 811.449280
51 0.812531 -811.448792 -0.314951 0.000000 -90.000000 -90.001900 811.449280
[L_Toe1_02]
49 413.761139 0.000477 0.000000 0.001385 -25.901281 0.001385 413.761139
50 413.761139 0.000477 0.000000 0.001385 -25.906355 0.001385 413.761139
51 413.761139 0.000477 0.000000 0.001385 -25.911428 0.001385 413.761139
[L_Toe1_03]
49 464.317322 0.000358 -0.000089 0.003549 51.380539 0.003549 464.317322
50 464.317322 0.000358 -0.000089 0.003577 51.694206 0.003577 464.317322
51 464.317322 0.000358 -0.000089 0.003606 52.007866 0.003606 464.317322
[L_Toe2_02]
49 342.235809 -0.000477 0.000238 0.001188 -72.247368 0.001188 342.235809
50 342.235809 -0.000477 0.000238 0.001188 -72.217514 0.001188 342.235809
51 342.235809 -0.000477 0.000238 0.001188 -72.187637 0.001188 342.235809
[L_Toe2_03]
49 420.210846 -0.000715 0.000000 0.025986 84.822716 0.025986 420.210846
50 420.210846 -0.000715 0.000000 0.025941 84.813820 0.025941 420.210846
51 420.210846 -0.000715 0.000000 0.025896 84.804916 0.025896 420.210846
[L_Toe3_02]
49 329.270111 0.000954 0.000000 0.001177 -81.973145 0.001177 329.270111
50 329.270111 0.000954 0.000000 0.001177 -81.711533 0.001177 329.270111
51 329.270111 0.000954 0.000000 0.001177 -81.450012 0.001177 329.270111
[L_Toe3_03]
49 439.137451 -0.001907 0.000954 -179.998047 72.204453 -179.994522 439.137451
50 439.137451 -0.001907 0.000954 -179.997726 73.636787 -179.994202 439.137451
51 439.137451 -0.001907 0.000954 -179.997406 74.808945 -179.993881 439.137451
[planeLockWeightLeft]
49 -0.000954 0.000238 -0.000305 -0.011826 -0.004376 0.005620 0.001029
50 -0.000954 0.000238 -0.000305 -0.011826 -0.004376 0.005620 0.001029
51 -0.000954 0.000238 -0.000305 -0.011826 -0.004376 0.005620 0.001029
[R_Leg01]
49 761.455627 -0.001907 -0.000358 120.387466 -10.712813 29.153704 761.455688
50 761.455627 -0.001907 -0.000358 120.322701 -10.371852 30.500805 761.455688
51 761.455627 -0.001907 -0.000358 120.266151 -10.029475 31.846066 761.455688
[R_Leg02]
49 1441.140625 0.000000 -0.000238 -1.492907 -0.267930 -123.143555 1441.140625
50 1441.140625 0.000000 -0.000238 -1.492920 -0.267856 -123.137917 1441.140625
51 1441.140625 0.000000 -0.000238 -1.480279 -0.259502 -122.800407 1441.140625
[R_Leg03]
49 1686.963989 0.000954 0.001431 0.081900 -0.046770 132.400711 1686.963989
50 1686.963989 0.000954 0.001431 0.081899 -0.046771 132.402527 1686.963989
51 1686.963989 0.000954 0.001431 0.081899 -0.046772 132.404312 1686.963989
[R_Foot]
49 3041.560059 -30.531288 -11.204481 3.946150 -24.383812 52.956448 3041.734131
50 3041.560059 -30.531288 -11.204481 2.940623 -24.449530 53.723846 3041.734131
51 3041.560059 -30.531288 -11.204481 1.933742 -24.502956 54.492741 3041.734131
[planeAlignerRight]
49 -0.635147 -812.270569 -0.364304 0.000000 -89.960434 -90.005180 812.270874
50 -0.635147 -812.270569 -0.364304 0.000000 -89.960434 -90.005180 812.270874
51 -0.635147 -812.270569 -0.364304 0.000000 -89.960434 -90.005180 812.270874
[R_Toe1_01]
49 -188.383347 -224.864899 21.052242 77.100578 -2.365064 -176.907990 294.101532
50 -188.383347 -224.864899 21.052242 77.071297 -2.182471 -176.794266 294.101532
51 -188.383347 -224.864899 21.052242 77.027153 -1.947457 -176.408096 294.101532
[R_Toe2_01]
49 200.637817 -220.002121 -148.787384 -89.321815 32.448822 -55.051346 332.857574
50 200.637817 -220.002121 -148.787384 -89.493690 32.581169 -55.289314 332.857574
51 200.637817 -220.002121 -148.787384 -89.666473 32.712910 -55.528122 332.857574
[R_Toe3_01]
49 188.606735 -220.092957 191.126343 -72.544708 -10.530739 -70.728325 347.192566
50 188.606735 -220.092957 191.126343 -72.622223 -10.355337 -70.839203 347.192566
51 188.606735 -220.092957 191.126343 -72.700027 -10.180087 -70.950279 347.192566
[planeLockWeightRight]
49 -0.000477 0.000000 0.000000 -0.011823 -0.004379 -0.000027 0.000477
50 -0.000477 0.000000 0.000000 -0.011823 -0.004379 -0.000027 0.000477
51 -0.000477 0.000000 0.000000 -0.011823 -0.004379 -0.000027 0.000477
[R_Toe1_02]
49 413.762085 0.000477 -0.000119 0.000006 -25.434675 -0.000005 413.762085
50 413.762085 0.000477 -0.000119 0.000006 -25.434675 -0.000005 413.762085
51 413.762085 0.000477 -0.000119 0.000006 -25.434675 -0.000005 413.762085
[R_Toe1_03]
49 464.317810 0.000000 0.001088 0.008804 74.678215 0.008804 464.317810
50 464.317810 0.000000 0.001088 0.008620 74.349251 0.008620 464.317810
51 464.317810 0.000000 0.001088 0.008443 74.020256 0.008443 464.317810
[R_Toe2_02]
49 342.234741 -0.000954 0.000238 0.001192 -70.011436 0.001192 342.234741
50 342.234741 -0.000954 0.000238 0.001192 -69.860634 0.001192 342.234741
51 342.234741 -0.000954 0.000238 0.001192 -69.709816 0.001192 342.234741
[R_Toe2_03]
49 420.210846 0.000715 -0.000268 0.012933 79.587029 0.012933 420.210846
50 420.210846 0.000715 -0.000268 0.012683 79.381195 0.012683 420.210846
51 420.210846 0.000715 -0.000268 0.012156 78.919189 0.012156 420.210846
[R_Toe3_02]
49 329.270355 -0.000477 -0.000954 0.001182 -76.017448 0.001182 329.270355
50 329.270355 -0.000477 -0.000954 0.001182 -76.039459 0.001182 329.270355
51 329.270355 -0.000477 -0.000954 0.001182 -76.061394 0.001182 329.270355
[R_Toe3_03]
49 439.137939 0.000238 0.001431 -0.024925 87.157860 -0.021427 439.137939
50 439.137939 0.000238 0.001431 -0.026791 87.369606 -0.023293 439.137939
51 439.137939 0.000238 0.001431 -0.025972 87.280846 -0.022475 439.137939
[Rear_Leg02]
49 1162.777710 -0.029802 0.005960 1.015874 -2.800746 -131.615723 1162.777710
50 1162.777710 -0.029802 0.005960 0.977244 -2.814791 -130.841934 1162.777710
51 1162.777710 -0.029802 0.005960 0.928952 -2.835444 -129.766693 1162.777710
[Rear_Leg03]
49 607.192505 -0.013351 -0.073195 0.010534 -0.005019 67.302452 607.192505
50 607.192505 -0.013351 -0.073195 0.010551 -0.004984 66.923470 607.192505
51 607.192505 -0.013351 -0.073195 0.010567 -0.004949 66.544456 607.192505
[Rear_Leg04]
49 995.874512 -0.020504 -0.011921 -0.041803 -0.018492 64.331261 995.874573
50 995.874512 -0.020504 -0.011921 -0.043814 -0.017387 63.773293 995.874573
51 995.874512 -0.020504 -0.011921 -0.043680 -0.017723 62.895020 995.874573
[Rear_Foot]
49 3096.176270 -0.067472 -0.041425 -85.492416 87.525909 107.773102 3096.176270
50 3096.176270 -0.067472 -0.041425 -105.024399 87.443802 88.246620 3096.176270
51 3096.176270 -0.067472 -0.041425 -121.590576 87.098892 71.685463 3096.176270
[planeAlignerCenter]
49 0.350077 0.966311 -838.790894 0.000009 0.000003 -179.999985 838.791565
50 0.350077 0.966311 -838.790894 0.000009 0.000003 -179.999985 838.791565
51 0.350077 0.966311 -838.790894 0.000009 0.000003 -179.999985 838.791565
[Rear_Toe1_01]
49 0.653352 83.966492 -371.173737 0.288091 41.914127 90.413170 380.553192
50 0.653352 83.966492 -371.173737 0.288091 41.914127 90.413170 380.553192
51 0.653352 83.966492 -371.173737 0.288091 41.914127 90.413170 380.553192
[Rear_Toe2_01]
49 178.200760 -294.826019 -362.060547 -7.196267 34.406261 -66.271294 499.765686
50 178.200760 -294.826019 -362.060547 -7.196267 34.406261 -66.271294 499.765686
51 178.200760 -294.826019 -362.060547 -7.196267 34.406261 -66.271294 499.765686
[Rear_Toe3_01]
49 -153.359680 -308.780914 -362.060852 3.289418 33.518005 -112.540970 499.952881
50 -153.359680 -308.780914 -362.060852 3.289418 33.518005 -112.540970 499.952881
51 -153.359680 -308.780914 -362.060852 3.289418 33.518005 -112.540970 499.952881
[planeLockWeightCenter]
49 -0.000062 0.000238 0.000000 -0.011814 -0.004373 -0.000015 0.000246
50 -0.000062 0.000238 0.000000 -0.011814 -0.004373 -0.000015 0.000246
51 -0.000062 0.000238 0.000000 -0.011814 -0.004373 -0.000015 0.000246
[Rear_Toe1_02]
49 379.707825 0.194073 0.000477 -0.000242 -31.676744 0.006934 379.707855
50 379.707825 0.194073 0.000477 -0.000242 -31.676744 0.006934 379.707855
51 379.707825 0.194073 0.000477 -0.000242 -31.676744 0.006934 379.707855
[Rear_Toe1_03]
49 500.129700 0.165701 0.000119 -0.000103 51.902466 0.007295 500.129761
50 500.129700 0.165701 0.000119 -0.000103 51.902466 0.007295 500.129761
51 500.129700 0.165701 0.000119 -0.000103 51.902485 0.007295 500.129761
[Rear_Toe2_02]
49 340.494507 0.000238 -0.000954 0.001192 -69.854523 0.001192 340.494507
50 340.494507 0.000238 -0.000954 0.001192 -69.854523 0.001192 340.494507
51 340.494507 0.000238 -0.000954 0.001192 -69.854523 0.001192 340.494507
[Rear_Toe2_03]
49 433.103577 0.000000 0.000238 0.006696 69.810326 0.006696 433.103546
50 433.103577 0.000000 0.000238 0.006696 69.810326 0.006696 433.103546
51 433.103577 0.000000 0.000238 0.006696 69.810326 0.006696 433.103546
[Rear_Toe3_02]
49 340.494141 -0.000358 -0.000477 0.008288 -67.274704 -0.009460 340.494171
50 340.494141 -0.000358 -0.000477 0.008288 -67.274704 -0.009460 340.494171
51 340.494141 -0.000358 -0.000477 0.008288 -67.274704 -0.009460 340.494171
[Rear_Toe3_03]
49 433.103577 0.001431 -0.000238 -0.000972 65.958984 -0.004547 433.103546
50 433.103577 0.001431 -0.000238 -0.000972 65.958984 -0.004547 433.103546
51 433.103577 0.001431 -0.000238 -0.000972 65.958984 -0.004547 433.103546
[Back_Bone]
49 1312.175781 -701.934692 0.000954 0.000023 -0.000007 -85.606667 1488.125488
50 1312.175781 -701.934692 0.000954 0.000023 -0.000007 -85.606667 1488.125488
51 1312.175781 -701.934692 0.000954 0.000023 -0.000007 -85.606667 1488.125488
[Head]
49 1406.159424 809.709290 0.001431 0.006012 -1.462362 7.772489 1622.625488
50 1406.159424 809.709290 0.001431 0.005767 -1.462965 7.772286 1622.625488
51 1406.159424 809.709290 0.001431 0.005522 -1.463568 7.772083 1622.625488
[Motor_Bone]
49 1158.364380 -417.834747 0.000477 -0.000105 0.000046 -105.985291 1231.419434
50 1158.364380 -417.834747 0.000477 -0.000105 0.000046 -105.985291 1231.419434
51 1158.364380 -417.834747 0.000477 -0.000105 0.000046 -105.985291 1231.419434
[Ping_Mechanism]
49 1215.237793 -433.297150 0.000954 0.000103 -0.000053 82.120995 1290.174072
50 1215.237793 -433.297150 0.000954 0.000103 -0.000053 82.120995 1290.174072
51 1215.237793 -433.297150 0.000954 0.000103 -0.000053 82.120995 1290.174072
[BN_LookIK]
49 193.241119 1380.371704 -0.002861 0.000000 89.965736 -31.038179 1393.832153
50 193.241119 1380.371704 -0.002861 0.000000 89.965736 -31.038179 1393.832153
51 193.241119 1380.371704 -0.002861 0.000000 89.965736 -31.038179 1393.832153
[bottomMouth]
49 -435.092926 615.759399 -0.000954 -0.000022 0.000016 73.527184 753.966492
50 -435.092926 615.759399 -0.000954 -0.000022 0.000016 73.527184 753.966492
51 -435.092926 615.759399 -0.000954 -0.000022 0.000016 73.527184 753.966492
[L_Mouth01]
49 554.440979 7.658243 838.222046 150.204178 23.759130 109.605339 1005.027161
50 554.440979 7.658243 838.222046 150.204178 23.759130 109.605339 1005.027161
51 554.440979 7.658243 838.222046 150.204178 23.759130 109.605339 1005.027161
[L_mouthFront]
49 551.629089 934.514771 339.150421 0.000081 2.804060 79.119301 1136.941284
50 551.629089 934.514771 339.150421 0.000081 2.804060 79.119301 1136.941284
51 551.629089 934.514771 339.150421 0.000081 2.804060 79.119301 1136.941284
[mouthGun]
49 55.332661 1627.420898 0.000000 0.000023 0.000009 -11.038128 1628.361328
50 55.332661 1627.420898 0.000000 0.000023 0.000009 -11.038128 1628.361328
51 55.332661 1627.420898 0.000000 0.000023 0.000009 -11.038128 1628.361328
[R_Mouth01]
49 554.442383 7.659197 -838.223938 29.795891 -23.759109 109.605331 1005.029541
50 554.442383 7.659197 -838.223938 29.795891 -23.759109 109.605331 1005.029541
51 554.442383 7.659197 -838.223938 29.795891 -23.759109 109.605331 1005.029541
[R_mouthFront]
49 551.629089 934.514282 -339.151367 0.000029 -2.803930 79.119133 1136.941162
50 551.629089 934.514282 -339.151367 0.000029 -2.803930 79.119133 1136.941162
51 551.629089 934.514282 -339.151367 0.000029 -2.803930 79.119133 1136.941162
[TopMouth]
49 461.269867 -56.106091 -0.008583 -0.000059 -0.000268 92.025169 464.669525
50 461.269867 -56.106091 -0.008583 -0.000059 -0.000268 92.025169 464.669525
51 461.269867 -56.106091 -0.008583 -0.000059 -0.000268 92.025169 464.669525
[weapon_bone]
49 -987.239868 1448.372803 0.001431 0.000000 89.965736 -31.038221 1752.833740
50 -987.239868 1448.372803 0.001431 0.000000 89.965736 -31.038221 1752.833740
51 -987.239868 1448.372803 0.001431 0.000000 89.965736 -31.038221 1752.833740
